# xmcd
#
# Track frame offsets:
#	150
#	17062
#	39374
#	57827
#	78228
#	97594
#	115277
#	135242
#	148297
#	161998
#	176260
#	202498
#
# Disc length: 3008 seconds
# Revision: 0
# Processed by: cddbd v1.5.2PL0 Copyright (c) Steve Scherf et al.
# Submitted via: dBpowerAMP V12.0
#
DISCID=9d0bbe0c
DTITLE=Various Artist - Saltflat Blues
DYEAR=2012
DGENRE=Blues
TTITLE0=Gus McKay - Caffeine 
TTITLE1=	 - Deja Vu
TTITLE2=	 - Murchison
TTITLE3=	 - Busking
TTITLE4=	 - 517
TTITLE5=	 - Extremely Voodoo
TTITLE6=	 - Don't Say Goodbye
TTITLE7=	 - Starter Won't Start
TTITLE8=	 - Torch
TTITLE9=	 - Ratrod
TTITLE10=	 - Snake
TTITLE11=	 - Branches
EXTD=
EXTT0=
EXTT1=
EXTT2=
EXTT3=
EXTT4=
EXTT5=
EXTT6=
EXTT7=
EXTT8=
EXTT9=
EXTT10=
EXTT11=
PLAYORDER=
